<svg width="10em" height="10em" viewBox="0 0 235 235" fill="none" xmlns="http://www.w3.org/2000/svg">
<path fill-rule="evenodd" clip-rule="evenodd" d="M16.1001 0H78.7669H141.434H219.767L188.434 62.6668H141.434V125.334H78.7669V62.6668H16.1001V0ZM83.5084 152.013C90.5597 144.961 100.123 141 110.096 141C120.068 141 129.631 144.961 136.683 152.013C143.734 159.064 147.696 168.628 147.696 178.6C147.696 216.2 110.096 235 110.096 235V216.2C100.123 216.2 90.5597 212.239 83.5084 205.187C76.457 198.136 72.4956 188.572 72.4956 178.6C72.4956 168.628 76.457 159.064 83.5084 152.013Z" fill="#dadada"/>
</svg>
