<svg width="374" height="531" viewBox="0 0 374 531" fill="none" xmlns="http://www.w3.org/2000/svg">
<path d="M57.4409 1.71612e-05L316.115 2.84682e-05L316.115 43.1761L207.256 43.1761L207.256 165.359L316.115 165.359L316.115 208.356L57.4409 208.356L57.4409 165.359L166.659 165.359L166.659 43.1761L57.4409 43.1761L57.4409 1.71612e-05Z" fill="#121212"/>
<path d="M276.907 235.251L316.606 235.251L316.606 278.427L276.907 278.427L276.907 235.251ZM57.4409 235.251L251.447 235.251L251.447 278.427L57.4409 278.427L57.4409 235.251Z" fill="#121212"/>
<path d="M111.793 353.325L156.163 353.325L156.163 397.576L111.793 397.576L111.793 353.325ZM214.724 353.684L259.094 353.684L259.094 397.935L214.724 397.935L214.724 353.684Z" fill="#121212"/>
<path d="M-5.08606e-05 465.395L23.8914 433.505C41.0166 447.838 58.4412 459.244 76.1652 467.724C94.009 476.204 112.092 482.295 130.415 485.997C148.857 489.819 167.719 491.79 187 491.909C206.281 491.79 225.083 489.879 243.405 486.177C261.848 482.474 279.931 476.323 297.655 467.724C315.379 459.244 332.923 447.838 350.288 433.505L374 465.395C357.713 479.369 339.33 491.312 318.852 501.225C298.374 511.139 276.817 518.663 254.183 523.799C231.669 528.935 209.275 531.323 187 530.965C164.725 531.323 142.331 528.935 119.816 523.799C97.3022 518.663 75.8059 511.139 55.3276 501.225C34.7294 491.312 16.2868 479.369 -5.08606e-05 465.395Z" fill="#121212"/>
</svg>
