<svg 
    width="42" 
    height="42" 
    viewBox="0 0 42 42" 
    fill="none"
    style="mix-blend-mode: difference;" 
    xmlns="http://www.w3.org/2000/svg"
>
    <path 
        fill-rule="evenodd" 
        clip-rule="evenodd" 
        d="M21 42C32.598 42 42 32.598 42 21C42 9.40202 32.598 0 21 0C9.40202 0 0 9.40202 0 21C0 32.598 9.40202 42 21 42ZM12 13.3816C12 12.0684 13.0695 11 14.3842 11C15.6978 11 16.7665 12.0684 16.7665 13.3816C16.7665 14.6953 15.6978 15.7641 14.3842 15.7641C13.0695 15.7641 12 14.6954 12 13.3816ZM12.5763 16.7703H16.1894C16.3498 16.7703 16.4797 16.9003 16.4797 17.0606V28.6679C16.4797 28.8282 16.3498 28.9581 16.1894 28.9581H12.5763C12.416 28.9581 12.286 28.8282 12.286 28.6679V17.0606C12.286 16.9003 12.416 16.7703 12.5763 16.7703ZM25.3798 16.4818C23.9287 16.4818 22.8559 17.1056 22.2053 17.8145V17.0606C22.2053 16.9003 22.0754 16.7703 21.915 16.7703H18.4548C18.2945 16.7703 18.1646 16.9003 18.1646 17.0606V28.6679C18.1646 28.8282 18.2945 28.9582 18.4548 28.9582H22.06C22.2204 28.9582 22.3503 28.8282 22.3503 28.6679V22.925C22.3503 20.9897 22.876 20.2358 24.225 20.2358C25.6942 20.2358 25.8109 21.4444 25.8109 23.0245V28.6679C25.8109 28.8283 25.9409 28.9582 26.1012 28.9582H29.7078C29.8681 28.9582 29.998 28.8283 29.998 28.6679V22.3011C29.998 19.4235 29.4493 16.4818 25.3798 16.4818Z" 
        fill="#dadada"
    />
</svg>
