<svg width="40" height="40" viewBox="0 0 40 40" fill="none" xmlns="http://www.w3.org/2000/svg">
<path fill-rule="evenodd" clip-rule="evenodd" d="M20 40C31.0457 40 40 31.0457 40 20C40 8.9543 31.0457 0 20 0C8.9543 0 0 8.9543 0 20C0 31.0457 8.9543 40 20 40ZM20.5 10C18.8431 10 17.5 11.3431 17.5 13V13.5C17.5 14.3284 16.8284 15 16 15C15.1716 15 14.5 14.3284 14.5 13.5V13C14.5 9.68629 17.1863 7 20.5 7C23.8137 7 26.5 9.68629 26.5 13V13.5C26.5 14.3284 25.8284 15 25 15C24.1716 15 23.5 14.3284 23.5 13.5V13C23.5 11.3431 22.1569 10 20.5 10ZM17 16.5C14.2386 16.5 12 18.7386 12 21.5V28.5C12 31.2614 14.2386 33.5 17 33.5H24C26.7614 33.5 29 31.2614 29 28.5V21.5C29 18.7386 26.7614 16.5 24 16.5H17ZM23.3125 23.3125C23.3125 24.2327 22.8706 25.0496 22.1875 25.5627V27.8125C22.1875 28.7445 21.432 29.5 20.5 29.5C19.568 29.5 18.8125 28.7445 18.8125 27.8125V25.5627C18.1294 25.0496 17.6875 24.2327 17.6875 23.3125C17.6875 21.7592 18.9467 20.5 20.5 20.5C22.0533 20.5 23.3125 21.7592 23.3125 23.3125Z" fill="#DADADA"/>
</svg>
