<svg 
    width="42" 
    height="42" 
    viewBox="0 0 42 42" 
    fill="none"
    style="mix-blend-mode: difference;" 
    xmlns="http://www.w3.org/2000/svg"
>
    <path 
        fill-rule="evenodd" 
        clip-rule="evenodd" 
        d="M21 42C32.598 42 42 32.598 42 21C42 9.40202 32.598 0 21 0C9.40202 0 0 9.40202 0 21C0 32.598 9.40202 42 21 42ZM28.9909 16.1306C29.1451 14.4487 27.2949 15.1413 27.2949 15.1413C25.9288 15.6841 24.52 16.2358 23.0959 16.7935C18.6803 18.5225 14.1185 20.3089 10.2325 22.067C8.12534 22.809 9.35877 23.5511 9.35877 23.5511L12.6993 24.5405C14.2411 24.9857 15.0634 24.491 15.0634 24.491L22.2584 19.7914C24.8281 18.1094 24.2113 19.4946 23.5946 20.0882L18.1983 25.0351C17.3761 25.7277 17.7872 26.3214 18.147 26.6182C19.1665 27.4818 21.6747 29.0619 22.7696 29.7517C23.0546 29.9312 23.2438 30.0504 23.2862 30.081C23.5432 30.2789 24.9308 31.1694 25.8559 30.9715C26.781 30.7736 26.8838 29.6358 26.8838 29.6358L28.1172 21.8691C28.3022 20.5208 28.5144 19.2248 28.6839 18.1897C28.8439 17.212 28.9659 16.4671 28.9909 16.1306Z" 
        fill="#dadada"
    />
</svg>
