<svg width="99" height="42" viewBox="0 0 99 42" fill="none" xmlns="http://www.w3.org/2000/svg">
<path d="M37.8539 8.00005V0.800049H39.0589V6.87005H42.2389V8.00005H37.8539Z" fill="black"/>
<path d="M43.0859 8.00005V0.800049H47.7359V1.93005H44.2909V3.70505H47.1359V4.83505H44.2909V6.87005H47.7359V8.00005H43.0859Z" fill="black"/>
<path d="M48.4355 8.00005L50.7055 0.800049H52.4705L54.7405 8.00005H53.5005L51.4405 1.54005H51.7105L49.6755 8.00005H48.4355ZM49.7005 6.44005V5.31505H53.4805V6.44005H49.7005Z" fill="black"/>
<path d="M55.6445 8.00005V0.800049H57.9395C57.9995 0.800049 58.1179 0.801716 58.2945 0.805049C58.4745 0.808382 58.6479 0.820049 58.8145 0.840049C59.3845 0.913382 59.8662 1.11672 60.2595 1.45005C60.6562 1.78005 60.9562 2.20172 61.1595 2.71505C61.3629 3.22838 61.4645 3.79005 61.4645 4.40005C61.4645 5.01005 61.3629 5.57172 61.1595 6.08505C60.9562 6.59838 60.6562 7.02172 60.2595 7.35505C59.8662 7.68505 59.3845 7.88672 58.8145 7.96005C58.6512 7.98005 58.4795 7.99172 58.2995 7.99505C58.1195 7.99838 57.9995 8.00005 57.9395 8.00005H55.6445ZM56.8695 6.86505H57.9395C58.0395 6.86505 58.1662 6.86172 58.3195 6.85505C58.4762 6.84838 58.6145 6.83338 58.7345 6.81005C59.0745 6.74672 59.3512 6.59505 59.5645 6.35505C59.7779 6.11505 59.9345 5.82338 60.0345 5.48005C60.1379 5.13672 60.1895 4.77672 60.1895 4.40005C60.1895 4.01005 60.1379 3.64338 60.0345 3.30005C59.9312 2.95672 59.7712 2.66838 59.5545 2.43505C59.3412 2.20172 59.0679 2.05338 58.7345 1.99005C58.6145 1.96338 58.4762 1.94838 58.3195 1.94505C58.1662 1.93838 58.0395 1.93505 57.9395 1.93505H56.8695V6.86505Z" fill="black"/>
<path d="M0.732422 19V11.8H3.70742C3.77742 11.8 3.86742 11.8034 3.97742 11.81C4.08742 11.8134 4.18909 11.8234 4.28242 11.84C4.69909 11.9034 5.04242 12.0417 5.31242 12.255C5.58576 12.4684 5.78742 12.7384 5.91742 13.065C6.05076 13.3884 6.11742 13.7484 6.11742 14.145C6.11742 14.5384 6.05076 14.8984 5.91742 15.225C5.78409 15.5484 5.58076 15.8167 5.30742 16.0301C5.03742 16.2434 4.69576 16.3817 4.28242 16.445C4.18909 16.4584 4.08576 16.4684 3.97242 16.475C3.86242 16.4817 3.77409 16.4851 3.70742 16.4851H1.93742V19H0.732422ZM1.93742 15.3601H3.65742C3.72409 15.3601 3.79909 15.3567 3.88242 15.35C3.96576 15.3434 4.04242 15.33 4.11242 15.31C4.31242 15.26 4.46909 15.1717 4.58242 15.045C4.69909 14.9184 4.78076 14.775 4.82742 14.615C4.87742 14.455 4.90242 14.2984 4.90242 14.145C4.90242 13.9917 4.87742 13.835 4.82742 13.675C4.78076 13.5117 4.69909 13.3667 4.58242 13.24C4.46909 13.1134 4.31242 13.025 4.11242 12.975C4.04242 12.955 3.96576 12.9434 3.88242 12.94C3.79909 12.9334 3.72409 12.93 3.65742 12.93H1.93742V15.3601Z" fill="black"/>
<path d="M7.11914 19V11.8H10.0941C10.1641 11.8 10.2541 11.8034 10.3641 11.81C10.4741 11.8134 10.5758 11.8234 10.6691 11.84C11.0858 11.9034 11.4291 12.0417 11.6991 12.255C11.9725 12.4684 12.1741 12.7384 12.3041 13.065C12.4375 13.3884 12.5041 13.7484 12.5041 14.145C12.5041 14.7317 12.3558 15.2367 12.0591 15.66C11.7625 16.08 11.3075 16.34 10.6941 16.4401L10.1791 16.4851H8.32414V19H7.11914ZM11.2541 19L9.83414 16.07L11.0591 15.8L12.6191 19H11.2541ZM8.32414 15.3601H10.0441C10.1108 15.3601 10.1858 15.3567 10.2691 15.35C10.3525 15.3434 10.4291 15.33 10.4991 15.31C10.6991 15.26 10.8558 15.1717 10.9691 15.045C11.0858 14.9184 11.1675 14.775 11.2141 14.615C11.2641 14.455 11.2891 14.2984 11.2891 14.145C11.2891 13.9917 11.2641 13.835 11.2141 13.675C11.1675 13.5117 11.0858 13.3667 10.9691 13.24C10.8558 13.1134 10.6991 13.025 10.4991 12.975C10.4291 12.955 10.3525 12.9434 10.2691 12.94C10.1858 12.9334 10.1108 12.93 10.0441 12.93H8.32414V15.3601Z" fill="black"/>
<path d="M16.7657 19.15C16.0457 19.15 15.429 18.9934 14.9157 18.68C14.4024 18.3634 14.0074 17.9234 13.7307 17.3601C13.4574 16.7967 13.3207 16.1434 13.3207 15.4C13.3207 14.6567 13.4574 14.0034 13.7307 13.44C14.0074 12.8767 14.4024 12.4384 14.9157 12.125C15.429 11.8084 16.0457 11.65 16.7657 11.65C17.4857 11.65 18.1024 11.8084 18.6157 12.125C19.1324 12.4384 19.5274 12.8767 19.8007 13.44C20.0774 14.0034 20.2157 14.6567 20.2157 15.4C20.2157 16.1434 20.0774 16.7967 19.8007 17.3601C19.5274 17.9234 19.1324 18.3634 18.6157 18.68C18.1024 18.9934 17.4857 19.15 16.7657 19.15ZM16.7657 18.015C17.249 18.0184 17.6507 17.9117 17.9707 17.695C18.294 17.4784 18.5357 17.1734 18.6957 16.7801C18.859 16.3867 18.9407 15.9267 18.9407 15.4C18.9407 14.8734 18.859 14.4167 18.6957 14.03C18.5357 13.64 18.294 13.3367 17.9707 13.12C17.6507 12.9034 17.249 12.7917 16.7657 12.785C16.2824 12.7817 15.8807 12.8884 15.5607 13.105C15.2407 13.3217 14.999 13.6267 14.8357 14.02C14.6757 14.4134 14.5957 14.8734 14.5957 15.4C14.5957 15.9267 14.6757 16.385 14.8357 16.775C14.9957 17.1617 15.2357 17.4634 15.5557 17.68C15.879 17.8967 16.2824 18.0084 16.7657 18.015Z" fill="black"/>
<path d="M21.2109 19V11.8H23.5059C23.5659 11.8 23.6843 11.8017 23.8609 11.805C24.0409 11.8084 24.2143 11.82 24.3809 11.84C24.9509 11.9134 25.4326 12.1167 25.8259 12.45C26.2226 12.78 26.5226 13.2017 26.7259 13.715C26.9293 14.2284 27.0309 14.79 27.0309 15.4C27.0309 16.01 26.9293 16.5717 26.7259 17.085C26.5226 17.5984 26.2226 18.0217 25.8259 18.355C25.4326 18.685 24.9509 18.8867 24.3809 18.96C24.2176 18.98 24.0459 18.9917 23.8659 18.9951C23.6859 18.9984 23.5659 19 23.5059 19H21.2109ZM22.4359 17.865H23.5059C23.6059 17.865 23.7326 17.8617 23.8859 17.855C24.0426 17.8484 24.1809 17.8334 24.3009 17.81C24.6409 17.7467 24.9176 17.595 25.1309 17.355C25.3443 17.115 25.5009 16.8234 25.6009 16.48C25.7043 16.1367 25.7559 15.7767 25.7559 15.4C25.7559 15.01 25.7043 14.6434 25.6009 14.3C25.4976 13.9567 25.3376 13.6684 25.1209 13.435C24.9076 13.2017 24.6343 13.0534 24.3009 12.99C24.1809 12.9634 24.0426 12.9484 23.8859 12.945C23.7326 12.9384 23.6059 12.935 23.5059 12.935H22.4359V17.865Z" fill="black"/>
<path d="M31.1129 19.15C30.5396 19.15 30.0346 19.0334 29.5979 18.8C29.1646 18.5667 28.8246 18.2384 28.5779 17.8151C28.3346 17.3917 28.2129 16.8951 28.2129 16.3251V11.81L29.4329 11.8V16.295C29.4329 16.5651 29.4779 16.8067 29.5679 17.0201C29.6612 17.2334 29.7862 17.4151 29.9429 17.5651C30.0996 17.7117 30.2796 17.8234 30.4829 17.9C30.6862 17.9767 30.8962 18.015 31.1129 18.015C31.3362 18.015 31.5479 17.9767 31.7479 17.9C31.9512 17.82 32.1312 17.7067 32.2879 17.56C32.4446 17.41 32.5679 17.2284 32.6579 17.015C32.7479 16.8017 32.7929 16.5617 32.7929 16.295V11.8H34.0129V16.3251C34.0129 16.8951 33.8896 17.3917 33.6429 17.8151C33.3996 18.2384 33.0596 18.5667 32.6229 18.8C32.1896 19.0334 31.6862 19.15 31.1129 19.15Z" fill="black"/>
<path d="M38.4552 19.15C37.7352 19.15 37.1185 18.9934 36.6052 18.68C36.0918 18.3634 35.6968 17.9234 35.4202 17.3601C35.1468 16.7967 35.0102 16.1434 35.0102 15.4C35.0102 14.6567 35.1468 14.0034 35.4202 13.44C35.6968 12.8767 36.0918 12.4384 36.6052 12.125C37.1185 11.8084 37.7352 11.65 38.4552 11.65C39.2852 11.65 39.9768 11.8584 40.5302 12.275C41.0835 12.6884 41.4718 13.2467 41.6952 13.95L40.4802 14.285C40.3402 13.815 40.1018 13.4484 39.7652 13.185C39.4285 12.9184 38.9918 12.785 38.4552 12.785C37.9718 12.785 37.5685 12.8934 37.2452 13.11C36.9252 13.3267 36.6835 13.6317 36.5202 14.025C36.3602 14.415 36.2785 14.8734 36.2752 15.4C36.2752 15.9267 36.3552 16.3867 36.5152 16.7801C36.6785 17.17 36.9218 17.4734 37.2452 17.6901C37.5685 17.9067 37.9718 18.015 38.4552 18.015C38.9918 18.015 39.4285 17.8817 39.7652 17.615C40.1018 17.3484 40.3402 16.9817 40.4802 16.515L41.6952 16.85C41.4718 17.5534 41.0835 18.1134 40.5302 18.5301C39.9768 18.9434 39.2852 19.15 38.4552 19.15Z" fill="black"/>
<path d="M44.523 19V12.93H42.193V11.8H48.058V12.93H45.728V19H44.523Z" fill="black"/>
<path d="M50.5566 19V11.8H52.8516C52.9116 11.8 53.03 11.8017 53.2066 11.805C53.3866 11.8084 53.56 11.82 53.7266 11.84C54.2966 11.9134 54.7783 12.1167 55.1716 12.45C55.5683 12.78 55.8683 13.2017 56.0716 13.715C56.275 14.2284 56.3766 14.79 56.3766 15.4C56.3766 16.01 56.275 16.5717 56.0716 17.085C55.8683 17.5984 55.5683 18.0217 55.1716 18.355C54.7783 18.685 54.2966 18.8867 53.7266 18.96C53.5633 18.98 53.3916 18.9917 53.2116 18.9951C53.0316 18.9984 52.9116 19 52.8516 19H50.5566ZM51.7816 17.865H52.8516C52.9516 17.865 53.0783 17.8617 53.2316 17.855C53.3883 17.8484 53.5266 17.8334 53.6466 17.81C53.9866 17.7467 54.2633 17.595 54.4766 17.355C54.69 17.115 54.8466 16.8234 54.9466 16.48C55.05 16.1367 55.1016 15.7767 55.1016 15.4C55.1016 15.01 55.05 14.6434 54.9466 14.3C54.8433 13.9567 54.6833 13.6684 54.4666 13.435C54.2533 13.2017 53.98 13.0534 53.6466 12.99C53.5266 12.9634 53.3883 12.9484 53.2316 12.945C53.0783 12.9384 52.9516 12.935 52.8516 12.935H51.7816V17.865Z" fill="black"/>
<path d="M57.5586 19V11.8H62.2086V12.93H58.7636V14.705H61.6086V15.835H58.7636V17.8701H62.2086V19H57.5586Z" fill="black"/>
<path d="M66.0048 19.15C65.4782 19.15 65.0032 19.0584 64.5798 18.875C64.1598 18.6917 63.8132 18.43 63.5398 18.09C63.2698 17.7467 63.0982 17.34 63.0248 16.87L64.2748 16.68C64.3815 17.1067 64.5998 17.4367 64.9298 17.67C65.2632 17.9034 65.6465 18.0201 66.0798 18.0201C66.3365 18.0201 66.5782 17.98 66.8048 17.9C67.0315 17.82 67.2148 17.7034 67.3548 17.55C67.4982 17.3967 67.5698 17.2084 67.5698 16.9851C67.5698 16.885 67.5532 16.7934 67.5198 16.71C67.4865 16.6234 67.4365 16.5467 67.3699 16.48C67.3065 16.4134 67.2232 16.3534 67.1199 16.3C67.0199 16.2434 66.9032 16.1951 66.7698 16.1551L64.9098 15.605C64.7498 15.5584 64.5765 15.4967 64.3898 15.42C64.2065 15.34 64.0315 15.2317 63.8648 15.095C63.7015 14.955 63.5665 14.7784 63.4598 14.565C63.3565 14.3484 63.3048 14.0817 63.3048 13.765C63.3048 13.3017 63.4215 12.9134 63.6548 12.6C63.8915 12.2834 64.2082 12.0467 64.6048 11.89C65.0048 11.7334 65.4482 11.6567 65.9348 11.66C66.4282 11.6634 66.8682 11.7484 67.2548 11.915C67.6415 12.0784 67.9648 12.3167 68.2248 12.63C68.4848 12.9434 68.6682 13.3217 68.7748 13.765L67.4799 13.99C67.4265 13.7367 67.3232 13.5217 67.1698 13.345C67.0198 13.165 66.8348 13.0284 66.6148 12.935C66.3982 12.8417 66.1665 12.7917 65.9198 12.785C65.6798 12.7817 65.4565 12.8184 65.2498 12.895C65.0465 12.9684 64.8815 13.0751 64.7548 13.215C64.6315 13.3551 64.5698 13.5184 64.5698 13.705C64.5698 13.8817 64.6232 14.0267 64.7298 14.14C64.8365 14.25 64.9682 14.3384 65.1248 14.405C65.2849 14.4684 65.4465 14.5217 65.6098 14.565L66.8998 14.925C67.0765 14.9717 67.2748 15.035 67.4949 15.115C67.7149 15.195 67.9265 15.3067 68.1298 15.4501C68.3332 15.5934 68.4998 15.7817 68.6298 16.015C68.7632 16.2484 68.8298 16.5451 68.8298 16.9051C68.8298 17.2784 68.7515 17.6067 68.5948 17.89C68.4415 18.17 68.2332 18.4034 67.9698 18.59C67.7065 18.7767 67.4048 18.9167 67.0648 19.01C66.7282 19.1034 66.3748 19.15 66.0048 19.15Z" fill="black"/>
<path d="M70.0121 19V11.8H71.2171V19H70.0121Z" fill="black"/>
<path d="M75.6848 19.15C75.2182 19.15 74.7799 19.0684 74.3699 18.9051C73.9632 18.7384 73.6048 18.495 73.2948 18.175C72.9882 17.855 72.7482 17.4634 72.5748 17C72.4015 16.5334 72.3148 16 72.3148 15.4C72.3148 14.6134 72.4615 13.9417 72.7548 13.385C73.0482 12.8251 73.4498 12.3967 73.9598 12.1C74.4698 11.8 75.0448 11.65 75.6848 11.65C76.5715 11.65 77.2732 11.8567 77.7898 12.27C78.3098 12.68 78.6615 13.2567 78.8448 14L77.6148 14.195C77.4782 13.7684 77.2548 13.4284 76.9448 13.175C76.6348 12.9184 76.2399 12.79 75.7598 12.79C75.2765 12.7834 74.8748 12.8884 74.5548 13.105C74.2348 13.3217 73.9932 13.6267 73.8298 14.02C73.6698 14.4134 73.5898 14.8734 73.5898 15.4C73.5898 15.9267 73.6698 16.385 73.8298 16.775C73.9899 17.1617 74.2299 17.4634 74.5499 17.68C74.8732 17.8967 75.2765 18.0084 75.7598 18.015C76.1232 18.0184 76.4415 17.9534 76.7148 17.82C76.9882 17.6834 77.2115 17.4784 77.3848 17.205C77.5582 16.9284 77.6749 16.5834 77.7348 16.17H76.4648V15.225H79.0148C79.0215 15.2784 79.0265 15.3567 79.0298 15.46C79.0332 15.5634 79.0348 15.625 79.0348 15.6451C79.0348 16.3251 78.8998 16.93 78.6298 17.46C78.3632 17.9867 77.9799 18.4001 77.4799 18.7001C76.9799 19 76.3815 19.15 75.6848 19.15Z" fill="black"/>
<path d="M80.0391 19V11.8H81.2591L84.5991 16.875V11.8H85.8191V19H84.5991L81.2591 13.925V19H80.0391Z" fill="black"/>
<path d="M87.2168 19V11.8H91.8668V12.93H88.4218V14.705H91.2668V15.835H88.4218V17.8701H91.8668V19H87.2168Z" fill="black"/>
<path d="M93.0664 19V11.8H96.0414C96.1114 11.8 96.2014 11.8034 96.3114 11.81C96.4214 11.8134 96.5231 11.8234 96.6164 11.84C97.0331 11.9034 97.3764 12.0417 97.6464 12.255C97.9197 12.4684 98.1214 12.7384 98.2514 13.065C98.3847 13.3884 98.4514 13.7484 98.4514 14.145C98.4514 14.7317 98.3031 15.2367 98.0064 15.66C97.7097 16.08 97.2547 16.34 96.6414 16.4401L96.1264 16.4851H94.2714V19H93.0664ZM97.2014 19L95.7814 16.07L97.0064 15.8L98.5664 19H97.2014ZM94.2714 15.3601H95.9914C96.0581 15.3601 96.1331 15.3567 96.2164 15.35C96.2997 15.3434 96.3764 15.33 96.4464 15.31C96.6464 15.26 96.8031 15.1717 96.9164 15.045C97.0331 14.9184 97.1147 14.775 97.1614 14.615C97.2114 14.455 97.2364 14.2984 97.2364 14.145C97.2364 13.9917 97.2114 13.835 97.1614 13.675C97.1147 13.5117 97.0331 13.3667 96.9164 13.24C96.8031 13.1134 96.6464 13.025 96.4464 12.975C96.3764 12.955 96.2997 12.9434 96.2164 12.94C96.1331 12.9334 96.0581 12.93 95.9914 12.93H94.2714V15.3601Z" fill="black"/>
<path d="M29.5439 30L31.8139 22.8H33.5789L35.8489 30H34.6089L32.5489 23.54H32.8189L30.7839 30H29.5439ZM30.8089 28.4401V27.3151H34.5889V28.4401H30.8089Z" fill="black"/>
<path d="M38.7549 30V22.8H41.6099C42.0965 22.8 42.4949 22.8984 42.8049 23.095C43.1182 23.2884 43.3499 23.5367 43.4999 23.84C43.6532 24.1434 43.7299 24.4567 43.7299 24.7801C43.7299 25.1767 43.6349 25.5134 43.4449 25.79C43.2582 26.0667 43.0032 26.2534 42.6799 26.35V26.1C43.1332 26.2034 43.4765 26.4184 43.7099 26.745C43.9465 27.0717 44.0649 27.4434 44.0649 27.8601C44.0649 28.2867 43.9832 28.66 43.8199 28.98C43.6565 29.3 43.4132 29.55 43.0899 29.73C42.7699 29.91 42.3732 30 41.8999 30H38.7549ZM39.9749 28.865H41.7499C41.9599 28.865 42.1482 28.8234 42.3149 28.74C42.4816 28.6534 42.6115 28.5334 42.7049 28.38C42.8016 28.2234 42.8499 28.0384 42.8499 27.8251C42.8499 27.6317 42.8082 27.4584 42.7249 27.305C42.6415 27.1517 42.5199 27.0301 42.3599 26.9401C42.1999 26.8467 42.0082 26.8 41.7849 26.8H39.9749V28.865ZM39.9749 25.675H41.5949C41.7682 25.675 41.9232 25.6417 42.0599 25.575C42.1965 25.5084 42.3049 25.41 42.3849 25.28C42.4649 25.15 42.5049 24.99 42.5049 24.8C42.5049 24.55 42.4249 24.3417 42.2649 24.175C42.1049 24.0084 41.8815 23.925 41.5949 23.925H39.9749V25.675Z" fill="black"/>
<path d="M45.1635 30V22.8H46.3685V30H45.1635Z" fill="black"/>
<path d="M49.5962 30V23.93H47.2662V22.8H53.1312V23.93H50.8012V30H49.5962Z" fill="black"/>
<path d="M58.6749 30.15C57.9549 30.15 57.3382 29.9934 56.8249 29.68C56.3116 29.3634 55.9165 28.9234 55.6399 28.3601C55.3665 27.7967 55.2299 27.1434 55.2299 26.4C55.2299 25.6567 55.3665 25.0034 55.6399 24.44C55.9165 23.8767 56.3116 23.4384 56.8249 23.125C57.3382 22.8084 57.9549 22.65 58.6749 22.65C59.3949 22.65 60.0116 22.8084 60.5249 23.125C61.0415 23.4384 61.4365 23.8767 61.7099 24.44C61.9865 25.0034 62.1249 25.6567 62.1249 26.4C62.1249 27.1434 61.9865 27.7967 61.7099 28.3601C61.4365 28.9234 61.0415 29.3634 60.5249 29.68C60.0116 29.9934 59.3949 30.15 58.6749 30.15ZM58.6749 29.015C59.1582 29.0184 59.5599 28.9117 59.8799 28.695C60.2032 28.4784 60.4449 28.1734 60.6049 27.7801C60.7682 27.3867 60.8499 26.9267 60.8499 26.4C60.8499 25.8734 60.7682 25.4167 60.6049 25.0301C60.4449 24.6401 60.2032 24.3367 59.8799 24.1201C59.5599 23.9034 59.1582 23.7917 58.6749 23.785C58.1915 23.7817 57.7899 23.8884 57.4699 24.105C57.1499 24.3217 56.9082 24.6267 56.7449 25.0201C56.5849 25.4134 56.5049 25.8734 56.5049 26.4C56.5049 26.9267 56.5849 27.385 56.7449 27.775C56.9049 28.1617 57.1449 28.4634 57.4649 28.68C57.7882 28.8967 58.1915 29.0084 58.6749 29.015Z" fill="black"/>
<path d="M63.1201 30V22.8H67.4551V24.005H64.3251V25.8H66.8551V27H64.3251V30H63.1201Z" fill="black"/>
<path d="M21.9141 41V33.8H24.2091C24.2691 33.8 24.3874 33.8017 24.5641 33.805C24.7441 33.8084 24.9174 33.82 25.0841 33.84C25.6541 33.9134 26.1357 34.1167 26.5291 34.4501C26.9257 34.7801 27.2257 35.2017 27.4291 35.715C27.6324 36.2284 27.7341 36.7901 27.7341 37.4001C27.7341 38.0101 27.6324 38.5717 27.4291 39.085C27.2257 39.5984 26.9257 40.0217 26.5291 40.355C26.1357 40.6851 25.6541 40.8867 25.0841 40.96C24.9207 40.98 24.7491 40.9917 24.5691 40.995C24.3891 40.9984 24.2691 41 24.2091 41H21.9141ZM23.1391 39.8651H24.2091C24.3091 39.8651 24.4357 39.8617 24.5891 39.855C24.7457 39.8484 24.8841 39.8334 25.0041 39.8101C25.3441 39.7467 25.6207 39.5951 25.8341 39.355C26.0474 39.115 26.2041 38.8234 26.3041 38.48C26.4074 38.1367 26.4591 37.7767 26.4591 37.4001C26.4591 37.0101 26.4074 36.6434 26.3041 36.3C26.2007 35.9567 26.0407 35.6684 25.8241 35.4351C25.6107 35.2017 25.3374 35.0534 25.0041 34.9901C24.8841 34.9634 24.7457 34.9484 24.5891 34.945C24.4357 34.9384 24.3091 34.9351 24.2091 34.9351H23.1391V39.8651Z" fill="black"/>
<path d="M28.916 41V33.8H33.566V34.93H30.121V36.705H32.966V37.835H30.121V39.87H33.566V41H28.916Z" fill="black"/>
<path d="M36.3856 41L34.1156 33.8H35.3556L37.2556 39.8301L39.1806 33.8H40.4206L38.1506 41H36.3856Z" fill="black"/>
<path d="M41.1719 41V33.8H45.8219V34.93H42.3769V36.705H45.2219V37.835H42.3769V39.87H45.8219V41H41.1719Z" fill="black"/>
<path d="M47.1215 41V33.8H48.3265V39.87H51.5065V41H47.1215Z" fill="black"/>
<path d="M55.2032 41.1501C54.4832 41.1501 53.8665 40.9934 53.3532 40.68C52.8399 40.3634 52.4449 39.9234 52.1682 39.3601C51.8949 38.7967 51.7582 38.1434 51.7582 37.4001C51.7582 36.6567 51.8949 36.0034 52.1682 35.44C52.4449 34.8767 52.8399 34.4384 53.3532 34.125C53.8665 33.8084 54.4832 33.6501 55.2032 33.6501C55.9232 33.6501 56.5399 33.8084 57.0532 34.125C57.5699 34.4384 57.9649 34.8767 58.2382 35.44C58.5149 36.0034 58.6532 36.6567 58.6532 37.4001C58.6532 38.1434 58.5149 38.7967 58.2382 39.3601C57.9649 39.9234 57.5699 40.3634 57.0532 40.68C56.5399 40.9934 55.9232 41.1501 55.2032 41.1501ZM55.2032 40.015C55.6865 40.0184 56.0882 39.9117 56.4082 39.695C56.7315 39.4784 56.9732 39.1734 57.1332 38.78C57.2965 38.3867 57.3782 37.9267 57.3782 37.4001C57.3782 36.8734 57.2965 36.4167 57.1332 36.03C56.9732 35.64 56.7315 35.3367 56.4082 35.12C56.0882 34.9034 55.6865 34.7917 55.2032 34.785C54.7199 34.7817 54.3182 34.8884 53.9982 35.105C53.6782 35.3217 53.4365 35.6267 53.2732 36.0201C53.1132 36.4134 53.0332 36.8734 53.0332 37.4001C53.0332 37.9267 53.1132 38.3851 53.2732 38.7751C53.4332 39.1617 53.6732 39.4634 53.9932 39.68C54.3165 39.8967 54.7199 40.0084 55.2032 40.015Z" fill="black"/>
<path d="M59.6484 41V33.8H62.6234C62.6934 33.8 62.7834 33.8034 62.8934 33.8101C63.0034 33.8134 63.1051 33.8234 63.1984 33.84C63.6151 33.9034 63.9584 34.0417 64.2284 34.2551C64.5018 34.4684 64.7034 34.7384 64.8334 35.065C64.9668 35.3884 65.0334 35.7484 65.0334 36.1451C65.0334 36.5384 64.9668 36.8984 64.8334 37.225C64.7001 37.5484 64.4968 37.8167 64.2234 38.03C63.9534 38.2434 63.6118 38.3817 63.1984 38.445C63.1051 38.4584 63.0018 38.4684 62.8884 38.475C62.7784 38.4817 62.6901 38.4851 62.6234 38.4851H60.8534V41H59.6484ZM60.8534 37.3601H62.5734C62.6401 37.3601 62.7151 37.3567 62.7984 37.35C62.8818 37.3434 62.9584 37.3301 63.0284 37.3101C63.2284 37.2601 63.3851 37.1717 63.4984 37.045C63.6151 36.9184 63.6968 36.7751 63.7434 36.6151C63.7934 36.4551 63.8184 36.2984 63.8184 36.1451C63.8184 35.9917 63.7934 35.835 63.7434 35.675C63.6968 35.5117 63.6151 35.3667 63.4984 35.24C63.3851 35.1134 63.2284 35.025 63.0284 34.975C62.9584 34.955 62.8818 34.9434 62.7984 34.94C62.7151 34.9334 62.6401 34.93 62.5734 34.93H60.8534V37.3601Z" fill="black"/>
<path d="M66.0352 41V33.8H70.6852V34.93H67.2402V36.705H70.0852V37.835H67.2402V39.87H70.6852V41H66.0352Z" fill="black"/>
<path d="M71.8848 41V33.8H74.8598C74.9298 33.8 75.0198 33.8034 75.1298 33.8101C75.2398 33.8134 75.3414 33.8234 75.4348 33.84C75.8514 33.9034 76.1948 34.0417 76.4648 34.2551C76.7381 34.4684 76.9398 34.7384 77.0698 35.065C77.2031 35.3884 77.2698 35.7484 77.2698 36.1451C77.2698 36.7317 77.1214 37.2367 76.8248 37.66C76.5281 38.08 76.0731 38.34 75.4598 38.44L74.9448 38.4851H73.0898V41H71.8848ZM76.0198 41L74.5998 38.07L75.8248 37.8L77.3848 41H76.0198ZM73.0898 37.3601H74.8098C74.8764 37.3601 74.9514 37.3567 75.0348 37.35C75.1181 37.3434 75.1948 37.3301 75.2648 37.3101C75.4648 37.2601 75.6214 37.1717 75.7348 37.045C75.8514 36.9184 75.9331 36.7751 75.9798 36.6151C76.0298 36.4551 76.0548 36.2984 76.0548 36.1451C76.0548 35.9917 76.0298 35.835 75.9798 35.675C75.9331 35.5117 75.8514 35.3667 75.7348 35.24C75.6214 35.1134 75.4648 35.025 75.2648 34.975C75.1948 34.955 75.1181 34.9434 75.0348 34.94C74.9514 34.9334 74.8764 34.93 74.8098 34.93H73.0898V37.3601Z" fill="black"/>
</svg>
